<svg width="123.99999999999999" height="32" xmlns="http://www.w3.org/2000/svg" data-name="Layer 4">

 <title>logo</title>
 <g>
  <title>Layer 1</title>
  <path id="svg_1" fill="none" d="m21.752,8.866q-0.872,0 -1.717,-0.053l0,19.06l0,0l0,0.067q0.832,0.074 1.721,0.073a23.8,23.8 0 0 0 5.811,-0.749a24.553,24.553 0 0 0 4.533,-1.628l0,-18.527q-1.266,0.429 -2.594,0.766a31.729,31.729 0 0 1 -7.754,0.991z" class="cls-1"/>
  <path id="svg_2" fill="none" d="m14.333,3.988a23.807,23.807 0 0 0 -5.812,0.749a24.564,24.564 0 0 0 -4.54,1.628l0,18.526q1.266,-0.431 2.594,-0.766a31.724,31.724 0 0 1 7.758,-0.991q0.872,0 1.717,0.053l0,-19.06l0,0l0,-0.066q-0.829,-0.074 -1.717,-0.073z" class="cls-1"/>
  <path id="svg_3" fill="#cc2973" d="m16.05,23.187q-0.847,-0.053 -1.717,-0.053a31.724,31.724 0 0 0 -7.758,0.991q-1.327,0.335 -2.594,0.766l0,-18.527a24.564,24.564 0 0 1 4.54,-1.628a23.807,23.807 0 0 1 5.812,-0.749q0.887,0 1.721,0.073l0,0.068a18.061,18.061 0 0 0 1.991,0.451c0.641,0.108 1.306,0.188 1.991,0.238l0,-4.067a20.655,20.655 0 0 0 -5.7,-0.75a27.83,27.83 0 0 0 -6.788,0.87a27.221,27.221 0 0 0 -7.548,3.125l0,27.122a27.221,27.221 0 0 1 7.548,-3.125a27.869,27.869 0 0 1 6.785,-0.87q0.877,0 1.717,0.062l0,-4l0,0.003z" class="cls-2"/>
  <path id="svg_4" fill="#4555d2" d="m28.536,4.008a27.869,27.869 0 0 1 -6.785,0.87q-0.877,0 -1.717,-0.062c-0.685,-0.049 -1.35,-0.129 -1.991,-0.238a18.061,18.061 0 0 1 -1.991,-0.451l0,0l0,27.123a20.651,20.651 0 0 0 5.7,0.75a27.834,27.834 0 0 0 6.785,-0.87a27.229,27.229 0 0 0 7.548,-3.125l0,-27.122a27.231,27.231 0 0 1 -7.549,3.125zm3.564,21.628a24.553,24.553 0 0 1 -4.541,1.628a23.8,23.8 0 0 1 -5.811,0.749q-0.887,0 -1.721,-0.073l0,-0.068l0,0l0,-19.059q0.847,0.053 1.717,0.053a31.729,31.729 0 0 0 7.757,-0.991q1.335,-0.335 2.599,-0.766l0,18.527z" class="cls-3"/>
  <text style="cursor: move;" stroke-dasharray="5,5" transform="matrix(1.09774 0 0 1.38273 -3.62776 -7.69286)" stroke="null" font-style="normal" font-weight="normal" xml:space="preserve" text-anchor="start" font-family="sans-serif" font-size="16" stroke-width="0" id="svg_10" y="21.89958" x="45.95786" fill="#000000">TITLE</text>
 </g>
</svg>